# xmcd CD database file
#
# Track frame offsets:
#	150
#	14067
#	27480
#	42637
#	58275
#	74142
#	86777
#	100105
#	117140
#	128750
#
# Disc length: 1885 seconds
#
# Revision: 2
# Processed by: cddbd v1.5.2PL0 Copyright (c) Steve Scherf et al.
# Submitted via: CDex 1.79
#
DISCID=97075b0a
DTITLE=Jennifer Weatherly - In The Name Of Love
DYEAR=1997
DGENRE=Country
TTITLE0=Ain`t Through Lovin` You Yet
TTITLE1=In The Name Of Love
TTITLE2=Whisper
TTITLE3=Boogie Till The Cows Come Home
TTITLE4=Lonely Street
TTITLE5=The Lies That Bind
TTITLE6=No One Has To Tell You
TTITLE7=When I Sing For Him
TTITLE8=Lonesome Train
TTITLE9=I Never Knew I Could Feel This Way
EXTD=YEAR: 1997
EXTT0=
EXTT1=
EXTT2=
EXTT3=
EXTT4=
EXTT5=
EXTT6=
EXTT7=
EXTT8=
EXTT9=
PLAYORDER=
